<?xml version="1.0" encoding="UTF-8" standalone="no"?>
<!-- Created with Inkscape (http://www.inkscape.org/) -->

<svg
   xmlns:dc="http://purl.org/dc/elements/1.1/"
   xmlns:cc="http://creativecommons.org/ns#"
   xmlns:rdf="http://www.w3.org/1999/02/22-rdf-syntax-ns#"
   xmlns:svg="http://www.w3.org/2000/svg"
   xmlns="http://www.w3.org/2000/svg"
   xmlns:sodipodi="http://sodipodi.sourceforge.net/DTD/sodipodi-0.dtd"
   xmlns:inkscape="http://www.inkscape.org/namespaces/inkscape"
   width="15"
   height="15"
   viewBox="0 0 15 15.000001"
   id="svg2"
   version="1.1"
   inkscape:version="0.91 r13725"
   sodipodi:docname="lib.svg"
   inkscape:export-filename="K:\cmhoc\logo\lib.png"
   inkscape:export-xdpi="90"
   inkscape:export-ydpi="90">
  <defs
     id="defs4" />
  <sodipodi:namedview
     id="base"
     pagecolor="#ffffff"
     bordercolor="#666666"
     borderopacity="1.0"
     inkscape:pageopacity="0.0"
     inkscape:pageshadow="2"
     inkscape:zoom="2"
     inkscape:cx="-108.55607"
     inkscape:cy="50.720971"
     inkscape:document-units="px"
     inkscape:current-layer="layer1"
     showgrid="false"
     fit-margin-top="0"
     fit-margin-left="0"
     fit-margin-right="0"
     fit-margin-bottom="0"
     units="px"
     inkscape:window-width="1920"
     inkscape:window-height="1017"
     inkscape:window-x="-8"
     inkscape:window-y="-8"
     inkscape:window-maximized="1" />
  <metadata
     id="metadata7">
    <rdf:RDF>
      <cc:Work
         rdf:about="">
        <dc:format>image/svg+xml</dc:format>
        <dc:type
           rdf:resource="http://purl.org/dc/dcmitype/StillImage" />
        <dc:title></dc:title>
      </cc:Work>
    </rdf:RDF>
  </metadata>
  <g
     inkscape:label="Layer 1"
     inkscape:groupmode="layer"
     id="layer1"
     transform="translate(-273.22187,-639.76455)">
    <g
       transform="matrix(0.09832243,0,0,-0.09832243,273.22186,654.42036)"
       inkscape:label="ink_ext_XXXXXX"
       id="g3344"
       style="fill:#ffffff">
      <g
         transform="scale(0.1,0.1)"
         id="g3346"
         style="fill:#ffffff">
        <path
           inkscape:connector-curvature="0"
           id="path3348"
           style="fill:#ffffff;fill-opacity:1;fill-rule:nonzero;stroke:none"
           d="m 1524.23,1048.44 c -1.53,1.28 -3.69,1.39 -5.19,0.13 -0.75,-0.59 -71.1,-55.664 -130.13,-64.476 -3.86,0.066 -6.31,1.324 -7.95,3.578 -3.99,5.723 -0.48,20.988 0.98,28.448 1.23,6.52 1.67,9.17 -1.28,10.45 -2.83,1.17 -4.81,-1.68 -6.17,-3.6 -17.86,-26.064 -23.66,-36.622 -51.75,-60.7 l 0.93,0.464 c -25.18,-15.55 -60.35,-33.289 -84.12,-29.316 -8.87,1.504 -15.28,5.859 -19.44,13.676 -10.83,20.301 -11.17,73.866 50.02,213.686 0.7,1.64 0.22,3.58 -1.11,4.66 -1.43,1.1 -3.4,1.26 -4.85,0.24 -0.32,-0.2 -28.96,-19.74 -61.01,-14.27 -46.97,7.87 -78.29,65.12 -90.7,165.36 -0.16,1.83 -1.58,3.2 -3.32,3.55 -1.7,0.25 -3.42,-0.61 -4.15,-2.22 -44.78,-90.5 -93.26,-134.24 -140.224,-126.2 -32.114,5.37 -52.739,33.21 -52.856,33.53 -1.074,1.57 -3.004,2.06 -4.633,1.4 -1.683,-0.65 -2.789,-2.28 -2.589,-4.02 11.492,-152.13 -6.336,-202.63 -23.415,-218.19 -6.429,-5.948 -13.937,-8.022 -22.925,-6.499 -24.649,4.219 -53.368,34.849 -72.012,58.179 -16.984,29.89 -19.262,42.15 -27.078,71.79 -0.731,2.16 -1.61,5.57 -4.731,5.32 -3.246,-0.11 -3.664,-2.73 -4.593,-9.39 -1.149,-7.48 -2.911,-23.1 -8.614,-27.21 -2.379,-1.57 -5.3,-1.83 -9.183,-0.51 -51.957,28.79 -99.008,101.86 -99.582,102.67 -0.95,1.66 -3.047,2.34 -4.895,1.61 -1.734,-0.79 -2.789,-2.67 -2.347,-4.59 36.953,-169.33 24.917,-225.677 8.257,-243.174 -5.472,-5.878 -12.757,-8.105 -21.425,-6.691 -10.489,1.879 -19.434,8.57 -19.434,8.57 -1.766,1.258 -3.981,1.078 -5.348,-0.336 -1.386,-1.433 -1.629,-3.754 -0.418,-5.254 l 1.274,-1.675 c 0.156,-0.602 0.41,-1.067 0.91,-1.617 0,0 0.844,-0.973 2.215,-2.497 44.082,-58.644 68.531,-104.632 72.558,-136.75 1.036,-21.425 -6.699,-36.82 -23.652,-47.449 -22.426,-9.492 -53.324,-4.988 -59.379,-3.887 -0.973,0.09 -1.59,0.227 -1.59,0.227 -1.543,0.266 -3.179,-0.316 -4.109,-1.551 -0.793,-1.457 -0.93,-3.051 -0.137,-4.418 2.653,-4.574 66.227,-110.488 154.731,-138.34 4.793,-1.546 9.437,-2.652 13.375,-3.425 9.047,-2.051 18.476,-4.059 28.207,-5.653 69.328,-11.84 143.308,-8.816 190.504,-2.672 C 920.086,491.867 808.738,471.48 808.738,471.48 c -6.761,-1.703 -11.91,-2.207 -16.261,-3.226 -0.168,0 -0.325,-0.039 -0.481,-0.082 -7.289,-1.817 -9.719,-9.609 -16.547,-23.594 L 761.074,415.09 c -11.203,-22.602 12.754,-26.442 26.285,-23.719 l -0.562,-0.562 c 23.969,6.3 48.93,14.742 70.183,24.472 29.95,13.84 58.336,32.481 81.989,56.266 23.687,23.683 42.32,52.219 54.402,82.723 5.063,12.726 8.859,25.82 11.799,39.054 l 1.57,-0.246 c 42.1,-21.359 115.24,-50.488 188.27,-62.996 9.73,-1.566 19.4,-2.914 28.48,-3.863 4.1,-0.621 8.89,-1.106 13.92,-1.239 92.79,-2.937 183.95,76.805 187.75,80.407 1.17,0.922 1.68,2.625 1.17,4.015 -0.44,1.528 -1.61,2.653 -3.17,2.805 0,0 -0.28,0 -1.69,0.356 -5.94,1.015 -36.66,6.89 -54.71,23.238 -12.59,15.617 -14.86,32.758 -6.82,52.367 14.44,29.227 52.68,64.637 113.45,105.234 2.02,1.059 3.24,1.789 3.24,1.789 0.51,0.352 0.96,0.774 1.31,1.211 l 1.77,1.129 c 1.65,1.196 2.22,3.336 1.34,5.106 -0.86,1.851 -2.92,2.758 -4.8,2.136 -0.1,0 -10.62,-3.421 -21.29,-1.718 -8.63,1.523 -14.71,6.117 -18.11,13.496 -9.94,21.953 -2.69,79.078 88.13,226.719 1.07,1.75 0.69,3.91 -0.75,5.17" />
        <path
           inkscape:connector-curvature="0"
           id="path3350"
           style="fill:#ffffff;fill-opacity:1;fill-rule:nonzero;stroke:none"
           d="m 1041.87,262.738 -49.757,15.973 c -27.875,8 -55.707,-177.121 -250.875,-177.121 l -161.25,0 c -109.422,0 -145.312,37.781 -145.312,205.019 l 0,935.981 c 0,75.58 51.75,107.53 101.547,117.46 13.925,3.97 29.879,6.02 37.773,27.84 l 11.973,33.8 c 9.969,29.96 -9.918,33.89 -25.828,33.89 l -505.7113,0 c -17.8828,0 -27.8516,-6.01 -33.8438,-15.83 L 4.63281,1399.91 c -7.90234,-15.95 -3.94531,-31.96 21.94529,-35.89 97.4959,-21.88 127.3869,-35.81 127.3869,-121.43 l 0,-1029.5 C 153.965,137.461 102.273,105.559 52.5,95.6016 38.5625,91.6094 22.5977,89.6289 14.5938,67.6914 L 2.66016,33.9297 C -7.25781,4.03125 12.6094,0 28.582,0 L 962.27,0 c 53.67,0 91.52,17.9297 91.52,49.7891 l 0,195.0629 c 0,7.988 -3.93,15.988 -11.92,17.886" />
      </g>
    </g>
  </g>
</svg>
